# xmcd
#
# Track frame offsets: 
#        182
#        13242
#        29060
#        40512
#        57950
#        73035
#        87410
#        102270
#        115505
#        127707
#        140285
#        161035
#
# Disc length: 2333 seconds
#
# Revision: 10
# Processed by: cddbd v1.5.2PL0 Copyright (c) Steve Scherf et al.
# Submitted via: ExactAudioCopyFreeDBPlugin 1.0
#
DISCID=9a091b0c
DTITLE=LeAnn Rimes - LeAnn Rimes
DYEAR=1999
DGENRE=Country
TTITLE0=Crazy
TTITLE1=Don't Worry
TTITLE2=Leavin' On Your Mind
TTITLE3=Faded Love
TTITLE4=Born To Lose
TTITLE5=Cryin' Time
TTITLE6=She's Got You
TTITLE7=I Fall To Pieces
TTITLE8=Your Cheatin' Heart
TTITLE9=Lovesick Blues
TTITLE10=Me And Bobby McGee
TTITLE11=Big Deal
EXTD=more info\nMillenniumMusicProjectFormat, syntax as follows:\nTitl
EXTD=e{Subtitle}[info](Lyricist;Com
EXTT0=
EXTT1=
EXTT2=
EXTT3=
EXTT4=
EXTT5=
EXTT6=
EXTT7=
EXTT8=
EXTT9=
EXTT10=
EXTT11=
PLAYORDER=
